<svg xmlns="http://www.w3.org/2000/svg" width="39.61" height="35.129" viewBox="0 0 39.61 35.129"><path d="M27.812,0a11.779,11.779,0,0,0-7.621,2.8l-.386.327L19.418,2.8A11.793,11.793,0,1,0,14.9,23.18a11.622,11.622,0,0,0,2.1-.817l.37-.186.3.283a3.13,3.13,0,1,0-1-2.289c0,.1.005.209.016.311l.041.41-.369.183a10.234,10.234,0,0,1-4.56,1.066,10.345,10.345,0,1,1,0-20.691,10.421,10.421,0,0,1,6.634,2.208l.111.1.47.4-.393.587C16.993,7.025,16.38,8.989,16.8,10.585a3.093,3.093,0,0,0,6.012,0c.42-1.6-.193-3.56-1.822-5.837L20.6,4.17l.47-.4c.036-.033.072-.065.11-.1A10.419,10.419,0,0,1,35.533,18.676l-.029.031c-.207.231-.446.473-.69.7L25.6,28.761l-.005-.005-4.218,4.29a2.163,2.163,0,0,1-3.042,0l-1.572-1.586.155-.367a3.2,3.2,0,1,0-1.527,1.617l.385-.191,1.53,1.543a3.576,3.576,0,0,0,5.1,0l2.413-2.455.006.006L36.549,19.717c.019-.022.037-.041.055-.06A11.792,11.792,0,0,0,27.812,0M21.225,10.8h0a1.638,1.638,0,0,1-2.84,0c-1.066-1.786.716-4.579.922-4.892l.525-.794.569.949c.422.684,1.787,3.122.824,4.737M13.988,31.592a1.733,1.733,0,1,1,1.733-1.733,1.735,1.735,0,0,1-1.733,1.733" fill="#00563b"/></svg>